# xmcd CD database file
#
# Track frame offsets:
#	150
#	14437
#	29134
#	45075
#	60755
#	73635
#
# Disc length: 1148 seconds
#
# Revision: 0
# Processed by: cddbd v1.5.2PL0 Copyright (c) Steve Scherf et al.
# Submitted via: CDex 2.06
#
DISCID=43047a06
DTITLE=chris lane - fix
DYEAR=2015
DGENRE=Country
TTITLE0=Fix
TTITLE1=Cool
TTITLE2=For Her
TTITLE3=Saturday Night
TTITLE4=Stolen Car
TTITLE5=Her Own Kind of Beautiful
EXTD=YEAR: 2015
EXTT0=
EXTT1=
EXTT2=
EXTT3=
EXTT4=
EXTT5=
PLAYORDER=
